<?xml version="1.0" standalone="no"?>
<!DOCTYPE svg PUBLIC "-//W3C//DTD SVG 20010904//EN"
 "http://www.w3.org/TR/2001/REC-SVG-20010904/DTD/svg10.dtd">
<svg version="1.0" xmlns="http://www.w3.org/2000/svg"
 width="100.000000pt" height="100.000000pt" viewBox="0 0 100.000000 100.000000"
 preserveAspectRatio="xMidYMid meet">

<g transform="translate(0.000000,100.000000) scale(0.100000,-0.100000)"
fill="#000000" stroke="none">
<path d="M383 986 c-219 -53 -383 -261 -383 -486 0 -270 230 -500 500 -500
270 0 500 230 500 500 0 274 -233 503 -508 499 -31 0 -80 -6 -109 -13z m208
-30 c242 -52 409 -289 369 -525 -11 -68 -61 -191 -78 -191 -4 0 -18 20 -30 45
-30 62 -87 122 -149 157 l-52 29 29 45 c15 24 31 63 34 87 19 123 -89 247
-214 247 -125 0 -233 -124 -214 -247 3 -24 19 -63 34 -87 l29 -45 -52 -29
c-62 -35 -119 -95 -149 -157 -12 -25 -26 -45 -30 -45 -17 0 -67 123 -78 191
-40 234 126 472 364 524 80 17 107 18 187 1z m-46 -147 c92 -26 140 -94 133
-190 -9 -128 -136 -203 -254 -150 -61 28 -97 80 -102 150 -7 94 41 164 128
189 47 14 49 14 95 1z m-45 -389 c28 0 66 6 85 14 32 14 38 13 84 -10 62 -31
143 -119 167 -179 l17 -46 -39 -40 c-88 -91 -252 -141 -385 -119 -87 15 -191
66 -243 119 l-39 40 17 46 c24 60 105 148 167 179 46 23 52 24 84 10 19 -8 57
-14 85 -14z"/>
</g>
</svg>
